<?xml version="1.0" encoding="UTF-8"?><svg id="Calque_2" xmlns="http://www.w3.org/2000/svg" viewBox="0 0 2689 385.52"><defs><style>.cls-1{fill:#0027ff;}</style></defs><g id="Calque_1-2"><g><path class="cls-1" d="M2020.25,91.84c14.52-5.8,28.61-12.55,43.38-17.09,24.67-7.58,49.11-7.5,70.38,9.75,18.55,15.04,25.45,35.1,21.64,58.52-7.66,47.07-15.67,94.07-23.5,141.11-2.14,12.88-4.95,25.72-5.9,38.7-.62,8.49,1.42,17.2,2.61,25.77,.42,3.04,2.24,5.87,2.76,8.91,1.37,8.07-3.47,14.19-11.63,14.22-36.14,.14-72.29,.16-108.43-.01-9.03-.04-13.78-5.7-12.49-15.43,1.83-13.78,4.51-27.44,6.88-41.15,6.77-39.14,13.57-78.27,20.36-117.41,1.99-11.47,4-22.93,6.04-34.39,.98-5.52,3.19-11.79-4.39-14.15-7.25-2.26-17.85,4.24-19.13,11.24-2.19,12.01-4.09,24.07-6.08,36.11-6.9,41.72-13.69,83.46-20.73,125.16-1.82,10.77-.76,20.73,4.58,30.45,5.7,10.38,.14,19.6-11.58,19.63-34.72,.08-69.44,.06-104.16,0-8.76-.01-13.83-3.85-14.81-10.84-1.22-8.63,5.46-14.09,13.83-11.69,4.52,1.3,9.27,2.42,13.93,2.47,23.33,.25,46.67,.11,70.01,.11h9.7c-6.61-29.84,3.16-57.51,7.26-85.58,5.21-35.64,11.55-71.13,17.87-106.59,1.37-7.66-.24-16.86,8.88-21.77,12.85-6.92,26.08-11.96,40.7-7.01,11.27,3.81,17.32,18.7,14.75,33.13-10.41,58.66-20.72,117.34-31.04,176.02-.59,3.34-.86,6.73-1.39,10.97h85.27c-2.03-51.16,13.11-100.11,19.91-150.11,2.94-21.64,7.49-43.05,10.65-64.66,3.45-23.68-16.43-45-41.88-45.81-16.66-.54-31.93,4.62-46.6,11.64-11.76,5.63-22.93,12.5-34.76,17.96-3.86,1.78-9.96,2.53-13.19,.63-2.63-1.55-3.32-7.74-3.42-11.91-.13-5.3,1.21-10.63,1.93-16.03-30,5.4-59.88,10.77-90.23,16.23,7.91,26.79-.49,53.31-4.57,80-6.43,42.07-13.56,84.04-20.41,126.05-.91,5.6-1.8,11.22-2.9,16.78-1.29,6.49-5.2,10.35-12,9.16-6.52-1.14-8.59-6.06-7.63-12.18,3.3-21.03,6.67-42.05,10.11-63.06,6.65-40.61,13.75-81.16,19.82-121.86,1.72-11.55,1.98-23.28-5.98-34.21-6.37-8.74,.84-21.76,11.56-21.99,35.27-.77,69.21-8.62,103.09-17.45,16.56-4.31,23.46,2.79,20.68,19.69-.12,.74,.19,1.55,.26,1.99Z"/><path class="cls-1" d="M125.8,351.82c-7.64-27.3-.17-52.55,3.34-78,1.17-8.43,2.82-16.8,4.1-25.22,1.52-10.06,4.04-12.02,14.57-12.47,26.4-1.13,52.96-1.02,79.13-4.16,37.26-4.47,72.24-15.6,97.93-45.69,23.76-27.85,30.07-76.31,13.23-105.58-12.58-21.87-32.78-34.84-56.06-41.72-16.94-5.01-35-8.23-52.64-8.6-51.78-1.11-103.59-.39-155.4-.39-3.04,0-6.08,0-9.5,0,4.82,21.98,1.53,42.68-1.87,63.42-7.02,42.85-13.9,85.73-20.82,128.6-5.7,35.3-11.37,70.61-17.08,105.92-.27,1.68-.75,3.33-1.18,4.98-1.61,6.22-5.74,9.46-11.97,7.92-6.02-1.49-8.69-6.14-7.68-12.4,2.95-18.21,6.04-36.4,8.99-54.61,5-30.82,9.9-61.65,14.9-92.46,5.82-35.85,11.9-71.67,17.4-107.57,1.41-9.19,1.51-18.66,1.32-27.99-.08-3.65-1.73-8.12-4.22-10.7-5.67-5.87-5.95-12.08-3.05-18.8,2.83-6.55,9.13-7.25,15.17-7.28,24.48-.15,48.95-.06,73.43-.07,28.46,0,56.93-.25,85.39,.07,29.65,.33,59.07,2.36,86.66,14.97,29.8,13.62,54.82,32.57,63.66,65.62,13,48.57-4.44,105.63-52.92,135.61-24.66,15.24-51.76,23.47-80.21,26.64-23.69,2.63-47.62,2.97-71.41,4.81-2.7,.21-7.06,3.21-7.43,5.45-3.58,21.54-7.19,43.13-9.13,64.85-.62,6.97,3.12,14.62,5.94,21.53,2.39,5.86,5.74,11.07,1.99,17.56-3.5,6.05-9.15,5.8-14.93,5.79-40.13-.04-80.26-.09-120.4,.05-7.3,.03-13.43-1.69-14.87-9.52-.62-3.36,.32-8.34,2.56-10.51,2.27-2.19,7.04-2.48,10.69-2.38,4.36,.11,8.68,2.23,13.02,2.26,29.6,.22,59.2,.11,88.8,.11,3.09,0,6.17,0,10.54,0Z"/><path class="cls-1" d="M2370.91,306.12c-10.19,7.74-19.03,15.98-29.21,21.92-36.76,21.44-76.77,1.57-82.84-40.37-3.43-23.7-1.09-47.24,3.36-70.32,4.76-24.69,11.48-49.09,18.75-73.19,4.05-13.43,12.3-24.97,24.98-32.39,22.52-13.18,47.24-2.01,49.9,22.93,1.17,11-3.54,20.44-11.37,28.15,9.61,9.61,27.02,11.73,39.58,5.02,11.18-5.97,17.38-20.41,14.92-33.55-4.34-23.16-21.01-33.75-41.43-39.11-59.63-15.65-123.65,10.67-157.78,64.57-24.29,38.37-32.56,80.1-23.76,124.81,7.94,40.35,41.93,72.05,82.78,77.84,48.44,6.86,89.62-7.8,124.36-41.7,6.14-6,12.21-6.86,16.23-2.17,4.16,4.84,3.87,9.96-.5,14.55-25.07,26.36-55.39,42.81-91.44,48.83-34.93,5.83-67.98,1.53-98.49-17.13-28.82-17.63-46.34-43.89-52.36-76.44-12.24-66.28,4.43-124.96,53.58-171.89,43.18-41.22,95.35-54.52,153.63-40.62,30.65,7.31,52.52,30.24,55.18,56.97,2.18,21.9-4.13,41.05-24.44,52.21-20.79,11.43-41.62,8.99-61.2-4.03-3.52-2.34-6.78-5.24-9.67-8.34-7.81-8.37-5.94-18.55,4.12-23.91,6.75-3.59,9.68-10.88,6.83-17.03-2.46-5.32-10.57-7.49-17.23-2.74-5.78,4.12-12.08,9.76-14.37,16.09-7.18,19.91-13.69,40.21-18.39,60.83-5.68,24.93-8.36,50.38-6.34,76.14,2.33,29.65,29.71,44.08,54.69,27.8,9.64-6.28,17.8-14.95,26.22-22.96,9.41-8.95,18.22-8.29,25.29,2.5,1.87,2.85,3.76,5.69,5.55,8.59,3.33,5.39,3.07,10.31-2.38,14.15-5.47,3.85-10.16,2.25-14.16-2.56-.88-1.05-1.67-2.18-2.62-3.43Z"/><path class="cls-1" d="M894.49,94.12c15.12,33.95,15.56,69.32,21.9,103.42,6.63,35.71,11.65,71.72,17.4,107.59,1.21,7.57,2.53,15.12,3.78,22.68,1.07,6.51-1.08,11.66-7.73,13.08-6.73,1.44-10.75-2.2-11.88-8.99-4.13-24.92-8.36-49.82-12.4-74.75-6.04-37.26-11.94-74.53-17.93-111.8-1.17-7.28-1.47-14.93-4.03-21.7-3.12-8.26-7.35-16.44-12.71-23.41-4.98-6.46-6.41-12.37-3.3-19.58,2.8-6.51,8.2-7.66,14.71-7.58,32.72,.4,65.44,.54,98.16,.76,13.99,.09,18.46,3.68,20.39,17.33,5.41,38.22,10.63,76.46,15.97,114.69,.66,4.71,1.6,9.39,4.06,14.41,4.82-10.06,9.65-20.11,14.44-30.18,11.09-23.3,22.17-46.6,33.24-69.9,3.89-8.18,6.27-15.65-.19-24.54-6.48-8.92-1.41-19.44,9.69-20.78,11.22-1.36,22.68-.83,34.03-1.01,7.4-.12,14.8-.06,22.2-.02,15.09,.09,20.12,7.45,13.97,21.44-6.85,15.57-14.36,30.85-21.59,46.25-34.1,72.64-68.22,145.28-102.31,217.94-3.79,8.09-8.93,12.84-19,12.51-21.89-.7-43.83-.04-65.74-.37-4.3-.06-9.83-.84-12.5-3.55-2.71-2.74-4.14-8.63-3.29-12.52,1.16-5.27,5.96-5.89,11.68-4.95,8.33,1.36,16.95,1.06,25.46,1.16,12.81,.15,25.63,.35,38.41-.19,2.94-.12,7.25-2.46,8.43-4.96,38.67-81.78,77.03-163.7,115.41-245.62,.8-1.7,1.27-3.56,2.2-6.21h-33.65c5.62,24.57-9.81,42.63-18.67,62.43-15.29,34.16-32.07,67.65-48.12,101.47-2.58,5.43-5.36,10.41-12.44,9.33-7.61-1.16-8.52-7.43-9.34-13.44-6.63-48.95-13.04-97.93-19.92-146.84-2.38-16.89-1.17-13.46-15.27-13.57-24.12-.19-48.25-.05-73.5-.05Z"/><path class="cls-1" d="M1482.69,75.63c2.67-13.94,6.69-27.1-1.92-40.35-8.05-12.39-1.24-23.62,13.27-24.9,30.53-2.7,60.98-6.44,91.48-9.55,6.77-.69,13.64-.99,20.44-.73,6.29,.24,10.54,6.32,9.79,14.42-.81,8.74-2.42,17.42-3.94,26.08-12.28,69.58-24.71,139.13-36.91,208.73-4.36,24.87-8.08,49.85-12.36,74.74-1.61,9.35-.38,17.97,4.04,26.35,6.63,12.59,1.47,21.34-12.45,21.36-30.74,.04-61.48-.24-92.21,.16-10.01,.13-18.14-1.52-21.4-12.09-11.37,4.37-21.87,9.57-32.97,12.41-24.09,6.16-47.88,5.42-70.08-7.54-2.91-1.7-6.81-3.61-7.76-6.29-1.31-3.7-1.85-10.51,.15-11.92,3.36-2.36,10.47-3.66,13.4-1.65,16.56,11.41,34.74,11.88,53.31,9.26,16.7-2.35,30.86-10.78,44.42-20.54,3.82-2.75,10.1-4.9,14.26-3.74,6.55,1.82,5.95,8.59,4.96,14.5-.55,3.29-1.39,7.38,4.05,7.39,26.4,.07,52.8,.03,79.85,.03-6.43-27.62,2.56-53.11,6.5-78.94,5.22-34.21,11.86-68.21,17.85-102.31,6.93-39.41,13.83-78.82,20.71-118.23,1.74-9.96,3.32-19.95,5.17-31.08-31.76,3.19-62.09,6.24-93.46,9.39,8.48,15.23,5.22,30.13,2.77,44.98-1.06,6.44-1.93,12.94-3.55,19.24-1.94,7.55-8.71,10.37-15.18,6.38-35.46-21.86-69.7-16.01-102.23,5.78-33.49,22.44-51.73,55.95-62.4,93.73-9.38,33.24-12.12,67.04-3.18,100.92,2.15,8.13,5.88,15.92,9.48,23.58,2.92,6.22,2.25,11.15-3.69,14.6-5.89,3.42-10.62,.75-13.7-4.4-11.18-18.73-15.58-39.45-16.69-60.92-2.57-49.83,7.76-96.6,35.06-138.83,19.88-30.77,46.47-53.48,82.38-63.65,22.78-6.45,45.5-5.85,67.84,2.5,1.26,.47,2.64,.63,4.9,1.15Z"/><path class="cls-1" d="M2539.49,243.88c-4.07,15.47-3.96,29.67,.36,43.4,7.42,23.57,27.91,33.05,51.42,25.2,15.53-5.18,26.09-15.61,33.85-29.44,3.54-6.31,7.98-14.89,15.47-11.49,8.12,3.69,14.39,11.83,20.68,18.75,1.09,1.2-.81,7.1-2.94,8.73-2.47,1.89-6.76,2.05-10.19,1.83-2.26-.15-4.39-2.29-6.77-3.65-5.56,6.26-10.48,12.89-16.48,18.33-19.55,17.76-42.59,23.71-68,16.5-21.23-6.02-32.1-22.49-37.43-42.78-4.41-16.78-3.62-33.76,.06-50.65,2.66-12.21,5.94-14.98,18.59-14.98,40.13-.01,80.25-.05,120.38,.06,4.77,.01,8.47-.43,8.99-6.26,2.9-32.63,1.02-64.57-18.87-92.22-21.93-30.48-53.49-39.77-88.95-33.79-58.26,9.83-93.42,47.72-113.04,100.77-15.54,42.02-15.06,84.33,8.86,123.77,19.5,32.15,49.9,47.04,86.78,49.06,47.2,2.59,83.01-18.71,111.68-54.38,1.6-1.99,3.34-3.86,5.11-5.71,4.49-4.68,9.59-5.16,14.34-.89,4.55,4.09,4.11,9.24,.59,13.81-22.51,29.21-49.27,53.32-85.98,62.2-50.65,12.25-97.62,4.95-135.01-34.38-29.36-30.87-39.04-69.4-35.84-110.97,4.22-54.86,27.72-100.37,71.46-134.13,36.74-28.35,78.31-38.55,123.64-25.1,35.03,10.39,57.11,34.9,68.44,69.12,9.2,27.77,10.8,56.19,4.66,84.84-2.43,11.34-6.82,14.4-18.57,14.42-39.27,.07-78.54,.03-117.82,.03-3.07,0-6.15,0-9.46,0Z"/><path class="cls-1" d="M1820.05,296.84c-7.85,8.09-14.43,16.44-22.52,22.89-18.26,14.57-39.47,18.81-61.92,12.66-22.82-6.25-34.11-23.83-38.94-45.47-3.8-17.03-2.82-34.35,1.53-51.44,2.19-8.6,6.97-12.02,15.81-11.97,40.42,.25,80.85-.08,121.27,.28,7.35,.06,9.41-1.95,10.11-9.36,2.43-25.63,.57-50.61-10.28-74.12-17.22-37.31-54.93-56.4-96.46-49.33-56.53,9.62-91.62,45.22-112.42,96-15.39,37.57-16.78,76.24-.68,114.45,16.5,39.17,52.3,61.4,93.31,63.62,47.49,2.57,83.83-18.14,112.64-54.34,1.06-1.33,2.11-2.68,3.26-3.95,4.21-4.64,9.27-5.92,14.36-2.04,5.15,3.93,5.42,9.2,1.44,14.24-13.81,17.48-28.98,33.55-48.2,45.29-51.89,31.7-119.34,27.65-163.18-10.2-25.26-21.8-38.99-50.42-43.01-82.86-7.47-60.34,10.69-112.93,53.51-156.11,29.38-29.62,64.99-45.78,107.72-45.09,50.97,.83,92.9,34.62,104.14,84.41,5.2,23.01,6.34,45.98,2.98,69.31-2.29,15.9-6.62,20.12-22.59,20.13-39,.03-78,.2-117-.16-7.22-.07-9.76,2.58-9.72,9.19,.04,6.81-.5,13.65-.04,20.43,2.65,39.05,31.77,49.59,61.82,35.74,12.11-5.58,19.97-15.66,26.45-26.92,7.9-13.73,14.76-14.87,26.08-4.28,2.28,2.14,4.56,4.29,6.69,6.57,4.27,4.58,5.19,9.76,.71,14.44-4.4,4.59-9.54,4.45-14.35,.06-.83-.76-1.73-1.45-2.52-2.09Z"/><path class="cls-1" d="M447.27,351.05c-5.03-36.98,7.52-71.59,12.57-107.04,3.19-22.44,8.27-44.6,11.89-66.99,3.41-21.1,33.71-45.59,54.83-43.6,11.58,1.09,18.75,7.05,21.86,18.29,.89,3.21,1.6,6.46,2.39,9.68,26.51-5.78,34.38-40.62,22.17-59.52-8.33-12.89-28.09-16.98-41.63-6.86-9.78,7.31-17.64,17.34-25.7,26.72-4.02,4.67-5.92,11.17-10.02,15.75-2.59,2.9-7.57,5.42-11.27,5.16-5.31-.38-7.74-5.19-7.23-10.77,.59-6.5,1.23-13,1.8-19.5,.56-6.42,1.07-12.84,1.63-19.59-14.86,2.89-28.64,5.84-42.52,8.2-11.74,2-23.59,3.43-35.42,4.87-4.11,.5-7.99,1.07-5.99,6.42,5.93,15.88,1.57,31.49-1.01,47.07-8.65,52.36-17.62,104.66-26.46,156.99-.85,5.03-1.63,10.07-2.57,15.09-1.21,6.45-4.87,10.48-11.76,9.53-6.63-.92-8.94-5.88-8.07-11.89,2.11-14.61,4.58-29.17,7.04-43.72,5.95-35.25,11.98-70.48,17.98-105.72,2.24-13.14,4.26-26.32,6.78-39.41,2.02-10.51,.82-20.09-4.98-29.35-7.46-11.92-.54-23.69,13.51-24.08,30-.83,59.24-6.35,88.03-14.59,3.27-.93,6.56-2.01,9.91-2.37,11.88-1.29,16.74,3.23,16.87,15.32,.02,1.68,0,3.36,0,6.35,5.46-4.21,9.88-7.97,14.65-11.21,20.01-13.62,46.05-13.9,62.99-.85,16.75,12.9,23.85,40.06,16.56,62.1-8.37,25.32-26.43,38.89-52.08,43.1-13.83,2.27-22.01-8.54-16.97-21.82,2.9-7.64,1.18-9.78-6.85-8.51-12.41,1.96-26.73,16.8-28.95,29.26-7.48,41.89-15.36,83.72-22.72,125.63-2.59,14.77-4.9,29.37,3.04,44,5.57,10.25-.78,18.56-12.57,18.6-34.15,.1-68.3-.05-102.44,.1-7.18,.03-12.75-2.47-14.1-9.5-.68-3.55,.76-8.85,3.27-11.25,2.16-2.06,7.2-1.47,10.95-1.38,2.4,.06,4.76,1.96,7.14,1.98,26.46,.15,52.93,.09,79.39,.05,1.35,0,2.71-.46,4.06-.7Z"/><path class="cls-1" d="M746.61,86.47c-60.26,.31-112.44,37.48-135.47,96.95-14.68,37.91-18.39,76.07-.21,113.94,4.5,9.39,10.71,18.05,16.83,26.54,4,5.54,5.94,10.51,.62,15.84-4.28,4.28-11.18,3.02-16.26-3.19-24.67-30.16-36.02-64.71-32.8-103.58,4-48.24,22.96-89.5,57.9-123.58,42.45-41.41,112.91-55.5,166.11-30.46,41.46,19.52,64.71,53.59,72.85,98.65,13.35,73.86-35.5,167.32-121.52,194.45-36.28,11.44-72.66,12.83-107.43-6.38-3.71-2.05-8.42-3.87-10.33-7.15-2.05-3.51-3.01-9.4-1.42-12.85,2.02-4.36,7.29-5.93,12.5-2.77,49.64,30.11,97.23,19.59,141.18-10.92,45.27-31.43,68.28-76.94,69.05-132.18,.71-50.42-31.47-94.05-77.97-108.5-5.41-1.68-11-3.01-16.6-3.8-5.61-.79-11.34-.7-17.02-1Z"/><path class="cls-1" d="M1238.36,351.41c-6.22-23.32,.34-44.67,3.78-66.11,5.57-34.74,11.91-69.37,17.89-104.05,4.1-23.78,8.12-47.56,12.18-71.35,.61-3.58,1.28-7.16,1.71-9.53-29.92,4.32-59.62,8.62-89.72,12.97,7.8,19.57,2.66,39.88-.95,60.21-5.8,32.7-11.61,65.4-17.47,98.09-3.61,20.12-7.37,40.2-10.96,60.32-1.14,6.37-4.84,9.88-11.18,9.02-6.41-.87-9.21-5.47-8.2-11.75,2.88-17.93,5.9-35.84,9.06-53.73,5.99-33.81,12.21-67.58,18.13-101.41,2.15-12.27,4.67-24.6,5.14-36.98,.25-6.56-2.48-13.83-5.73-19.76-3.68-6.71-5.02-13.46-.86-19.08,2.62-3.53,8.78-5.77,13.56-6.17,28.56-2.4,57.44-2.23,85.1-11.22,5.1-1.66,10.06-3.94,14.8-6.47,12.02-6.42,24.03,2.56,21.54,15.48-5.7,29.54-10.3,59.28-15.39,88.94-5.76,33.57-11.62,67.12-17.32,100.69-2.56,15.11-4.94,30.25-7.2,45.4-1.37,9.17-.46,17.85,4.66,26.14,6.68,10.81,.78,20.65-12.07,20.68-34.73,.09-69.46,.07-104.19,0-9.37-.02-14.1-4.09-14.41-11.93-.34-8.44,6.03-13.01,14.13-10.5,3.95,1.23,8.13,2.34,12.22,2.37,24.19,.22,48.39,.12,72.59,.09,2.78,0,5.56-.23,9.17-.39Z"/><path class="cls-1" d="M678.24,292.69c3.52-25.84,5.81-51.93,10.89-77.46,5.85-29.4,14.05-58.34,21.57-87.39,.94-3.64,3.27-8.09,6.27-9.7,3.08-1.65,9.56-1.85,11.35,.16,2.58,2.9,4.25,9.16,2.88,12.62-19.9,49.94-25.27,102.74-31.25,155.4-.99,8.67-.8,17.75,.71,26.31,.86,4.85,4.82,11.78,8.65,12.74,3.89,.97,10.98-3.08,13.73-7,4.77-6.8,8.43-14.89,10.55-22.96,13.06-49.77,22.4-100.18,23.53-151.82,.09-3.96-.07-8.03-.9-11.87-1.36-6.32-3.89-11.76-11.69-12.63-6.64-.74-10.66-4.92-9.41-11.63,1.22-6.59,6.26-8.83,12.9-8.05,14.14,1.67,25.93,11.78,27.15,27.34,1.45,18.52,2.34,37.56-.31,55.83-5.52,38.13-12.9,76.04-20.88,113.75-2.52,11.92-8.29,23.57-14.56,34.17-7.85,13.26-22.84,18.61-36,15.26-12.35-3.15-21.56-15.23-22.99-30.75-.68-7.34-.71-14.74-1.03-22.12-.38-.07-.77-.14-1.15-.2Z"/><path class="cls-1" d="M1395.66,270.47c4.63-45.25,7.74-92.35,28.94-135.71,6.28-12.85,15.82-21.97,30.01-25.73,7.71-2.04,13.8,.14,15.32,6.42,1.75,7.24-1.94,11.18-8.91,12.73-11.62,2.57-17.97,11.24-21.25,21.41-5.99,18.56-12.17,37.28-15.44,56.42-4.09,23.97-5.6,48.4-7.58,72.68-.47,5.72,.93,11.9,2.79,17.43,2.18,6.47,7.66,8.27,13.85,5.38,7.33-3.42,13.42-7.73,14.9-16.96,4.74-29.7,10.03-59.31,15.13-88.95,4.04-23.48,8.15-46.94,12.13-70.43,1.22-7.21,5.14-10.74,12.43-9.28,7.15,1.44,8.54,6.79,7.47,13.05-9.37,54.52-18.72,109.05-28.26,163.55-2.95,16.85-21.84,30.28-41.24,29.85-14.98-.34-25.56-11.33-28.27-29.83-.99-6.72-1.26-13.54-2-22.03Z"/><path class="cls-1" d="M244.73,108.77c-1.05,23.61-4.43,46.71-14.99,68.36-12.8,26.24-34,38.61-62.66,39.35-5.68,.15-11.4,.29-17.06-.12-6.33-.46-10.18-4.54-9.81-10.65,.34-5.6,4.05-9.1,10.31-9.2,7.09-.11,14.18-.66,21.27-.86,21.69-.61,34.27-13.52,42.06-31.96,7.93-18.75,11.36-38.67,11.48-58.94,.16-24.77-10.5-35.14-35.15-36.05-5.05-.19-7.65,.76-8.52,6.48-3.97,26.07-8.43,52.07-12.72,78.1-1.39,8.4-2.83,16.79-4.21,25.19-1.12,6.84-4.65,11.32-12.03,9.96-7.45-1.37-8.9-7.03-7.8-13.71,3.77-22.95,7.56-45.9,11.32-68.85,2.39-14.56,4.82-29.11,7.09-43.69,1.7-10.92,4.35-13.49,15.68-13.24,8.78,.19,17.71,.14,26.28,1.76,23.73,4.5,37.02,19.55,39.38,43.59,.47,4.78,.07,9.64,.07,14.47Z"/><path class="cls-1" d="M1231.29,60.82c13.93-.75,27.2-3.57,38.67-11.69,3.75-2.66,7.18-6.53,9.27-10.61,3.51-6.84,1.11-10.37-8.23-14.08-5.84-2.32-10.8-6.12-8.08-12.6,1.44-3.43,6.89-7.36,10.5-7.33,13.85,.1,26.03,12.8,27.5,26.81,1.35,12.94-4.44,22.93-14.09,30.27-27.79,21.16-59,24.71-91.05,12.91-27.86-10.25-24.72-41.85-2.52-57.72,16.29-11.65,35.34-15.36,55.05-13.87,3.21,.24,8.08,5.77,8.52,9.31,.73,5.9-3.93,8.88-10.25,9.97-12.18,2.09-24.19,5.16-36.26,7.89-1.07,.24-2.11,.85-3.05,1.46-6.19,4.04-12.75,9.52-10.31,16.83,1.51,4.54,8.7,8.34,14.12,10.15,6.29,2.09,13.43,1.63,20.21,2.28Z"/><path class="cls-1" d="M1759.27,185.83c.8-17.41,1.93-33.71,1.97-50.03,0-3.29-3.75-8.79-6.49-9.28-2.99-.53-8.5,2.76-9.96,5.8-5.13,10.66-9.03,21.91-13.3,32.98-1.02,2.64-.87,6.52-2.7,7.89-3.46,2.57-8.42,5.66-11.9,4.86-2.96-.68-7.41-7.43-6.57-9.97,5.37-16.3,10.89-32.74,18.61-48,5.75-11.37,17.14-16.7,30.35-13.85,13.26,2.86,21.01,12.41,21.68,25.28,.8,15.43-.75,31-1.71,46.49-.37,5.91-1.86,11.76-2.93,17.61-1.25,6.87-5.27,10.28-12.44,10.23-15.93-.12-31.86-.04-47.79-.04-7.03,0-11.8-3.23-11.84-10.44-.04-7.08,4.89-9.58,11.5-9.54,13.62,.07,27.24,.02,43.52,.02Z"/><path class="cls-1" d="M2562.62,205.79c-7.96,0-15.92,0-23.87,0-6.82,0-11.99-2.51-12.16-10.03-.17-7.67,4.77-10.09,11.81-9.99,11.65,.17,23.32,.39,34.94-.22,2.61-.14,6.95-3.37,7.25-5.61,1.79-13.45,3.29-27.03,3.41-40.57,.04-4.43-4.38-8.9-6.75-13.35-4.1,2.97-10.04,5.07-11.94,9.08-5.19,10.93-8.99,22.56-12.71,34.11-2.12,6.6-5.46,11.06-12.69,9.29-6.8-1.67-8.81-7.58-6.8-13.49,4.9-14.42,9.5-29.14,16.35-42.66,6.94-13.68,20.43-19.16,32.61-16.24,12.12,2.9,21.61,12.98,21.4,28.3-.28,21.11-3.23,42.22-5.65,63.26-.65,5.67-5.44,8.23-11.33,8.15-7.96-.11-15.92-.03-23.87-.03Z"/></g></g></svg>